<svg xmlns="http://www.w3.org/2000/svg" viewBox="0 0 50 25.18"><defs><style>.cls-1{isolation:isolate;}.cls-2{mix-blend-mode:multiply;}.cls-3{fill:#d6d6d6;}</style></defs><title>index</title><g class="cls-1"><g id="Capa_2" data-name="Capa 2"><g id="Capa_1-2" data-name="Capa 1"><g class="cls-2"><g class="cls-2"><path class="cls-3" d="M29.64,20.94a1.32,1.32,0,0,1,.43-.92c.27-.24.54-.28.65-.18s.06.26-.1.53a2.36,2.36,0,0,0-.13.23c-.08,1.1.14,2,.11,2.86a1.5,1.5,0,0,1-.54,1.25,3.08,3.08,0,0,0,1.6-1.66c.06-.13.18-.1.23,0a1,1,0,0,1-.17.79,2.5,2.5,0,0,1-2.11,1.31,1.74,1.74,0,0,1-1.77-.89A1.46,1.46,0,0,1,28,22.59c.15-.12.24-.07.25.12s0,.2,0,.29A22.24,22.24,0,0,0,29.64,20.94Zm-1.27,2.71c.18.69.53,1.18.93,1.06s.37-2,.32-3A21.75,21.75,0,0,1,28.37,23.65Z"/><path class="cls-3" d="M32.13,20c-.12-.17-.05-.25.13-.24a6.44,6.44,0,0,0,1-.05,16.37,16.37,0,0,1,.91-1.48c.11-.16.23-.14.29,0a1.63,1.63,0,0,1-.16,1.35.73.73,0,0,1,.74.36c.09.14,0,.23-.14.23a3.7,3.7,0,0,0-.93,0c-.47.81-1.15,2-1.6,3s-.27,1.61.24,1.64,1.21-.83,1.66-1.72c.07-.15.2-.17.25,0a1,1,0,0,1-.12.68c-.16.34-1,1.4-1.9,1.36-.79,0-1.42-.91-.85-2.28.25-.6.75-1.6,1.27-2.55A1,1,0,0,1,32.13,20Z"/><path class="cls-3" d="M34.47,25.12c-.85-.06-.87-.95-.61-1.74a13.39,13.39,0,0,1,1.65-3.05.18.18,0,0,1,.31,0c.27.4.21.94-.22,1.62a11.42,11.42,0,0,0-.94,1.75c-.25.59-.21,1,.06,1,.47,0,1.13-.8,1.77-1.84.76-1.22,1.1-2,1.49-2.56.12-.16.2-.19.29-.07a1.32,1.32,0,0,1,0,1.34c-.26.54-.86,1.44-1.13,2s-.27,1.18.16,1.16,1.12-.82,1.58-1.65c.06-.11.17-.12.22,0a1,1,0,0,1-.11.76,2.29,2.29,0,0,1-1.79,1.28c-.78,0-1.09-.49-1-1.19A2.28,2.28,0,0,1,34.47,25.12Z"/><path class="cls-3" d="M42.06,24.83c.49,0,1.14-.82,1.56-1.65.06-.11.14-.11.19,0a1,1,0,0,1-.1.74A2.11,2.11,0,0,1,42,25.16a.9.9,0,0,1-1-.95,2.1,2.1,0,0,1-1.48.92c-1.11,0-1.33-1.52-.34-2.95s1.9-1.93,2.49-1.93a.71.71,0,0,1,.72.81c.65-1.23,1.56-2.85,2-3.46.12-.17.22-.16.28,0,.17.39.13.91-.37,1.8s-1.72,3-2.32,4.27C41.67,24.36,41.66,24.85,42.06,24.83ZM40,22.65c-.64,1-.77,2.07-.31,2.08S40.8,24,41.36,23c.69-1.32.87-2.08.53-2.09S40.64,21.6,40,22.65Z"/><path class="cls-3" d="M43.5,23.4A14.74,14.74,0,0,1,45,20.49c.11-.14.19-.18.29-.07a1.24,1.24,0,0,1,0,1.3c-.25.53-.75,1.34-1,1.94s-.26,1.16.12,1.13c.54,0,1.2-.81,1.55-1.63.06-.11.15-.1.2,0a.85.85,0,0,1-.09.74,2.14,2.14,0,0,1-1.78,1.24C43.39,25.14,43.16,24.38,43.5,23.4Zm2.67-3.13a.43.43,0,0,1-.67-.17.72.72,0,0,1,.06-.89c.19-.2.53-.06.69.26A.74.74,0,0,1,46.17,20.27Z"/><path class="cls-3" d="M49.64,22.55a3.71,3.71,0,0,1-1.88,2.52,1.33,1.33,0,0,1-1.51-.53,2.49,2.49,0,0,1,.19-2.69,2.76,2.76,0,0,1,1.9-1.55.79.79,0,0,1,.81.41c.28.37.64.45.57,1.31a2.66,2.66,0,0,0,0,.28c.07,0,.15,0,.24,0s.09.06,0,.12A.54.54,0,0,1,49.64,22.55Zm-1-.3a1.48,1.48,0,0,1-.55-1.05,4,4,0,0,0-.92,1.12c-.5.91-.68,2-.37,2.27s1.06-.14,1.65-1.24a6.86,6.86,0,0,0,.42-1A.68.68,0,0,1,48.63,22.25ZM49,21.18c-.06-.38-.3-.31-.36,0a1,1,0,0,0,.26.85A2.36,2.36,0,0,0,49,21.18Z"/></g><g class="cls-2"><path class="cls-3" d="M5.87,4.32A2.8,2.8,0,0,1,5,6.38a2.87,2.87,0,0,1-2.06.85A2.87,2.87,0,0,1,.85,6.37,2.93,2.93,0,0,1,0,4.28,2.81,2.81,0,0,1,.85,2.21a3,3,0,0,1,2.07-.85A2.83,2.83,0,0,1,5,2.23,2.83,2.83,0,0,1,5.87,4.32ZM5.44,22.08H.4V8.52h5Z"/></g><g class="cls-2"><path class="cls-3" d="M16.4,23.88h-5V16.7a3.19,3.19,0,0,0-.18-1.29.64.64,0,0,0-.63-.36c-.7,0-1.06.66-1.06,2v6.84h-5V10.32h5c0,.33,0,.64,0,.93s0,.54,0,.79l0,.86Q10.6,10,13,10a3,3,0,0,1,2.54,1.22,5.52,5.52,0,0,1,.91,3.38Z"/></g><g class="cls-2"><path class="cls-3" d="M22.26,21.19c0-.15,0-.31,0-.49s0-.4,0-.64,0-.38,0-.69A5.33,5.33,0,0,1,20.94,21a2.93,2.93,0,0,1-1.67.45,3.63,3.63,0,0,1-3.21-1.83,9.52,9.52,0,0,1-1.15-5.09A10.43,10.43,0,0,1,16,9.23a3.52,3.52,0,0,1,3.18-1.89,3,3,0,0,1,1.82.5,4.92,4.92,0,0,1,1.41,1.74c0-.43,0-.69,0-.79l-.05-1.36V0h5V21.19Zm-2.14-6.84c0,1.86.41,2.78,1.24,2.78s1.16-.95,1.16-2.87-.37-2.75-1.13-2.75S20.12,12.46,20.12,14.35Z"/></g><g class="cls-2"><path class="cls-3" d="M33.56,17.78l4.92.1a6,6,0,0,1-2,3.57,6.27,6.27,0,0,1-4,1.19,5.88,5.88,0,0,1-4.56-1.8,7.2,7.2,0,0,1-1.64-5A7.73,7.73,0,0,1,28,10.58a5.76,5.76,0,0,1,4.57-2.05,5.5,5.5,0,0,1,4.44,2,8,8,0,0,1,1.66,5.26l0,.89H31.27c.05,1.39.45,2.08,1.17,2.08A1.11,1.11,0,0,0,33.56,17.78Zm.11-3.84a3,3,0,0,0-.08-.69,1.68,1.68,0,0,0-.25-.54,1.27,1.27,0,0,0-.37-.36.84.84,0,0,0-.46-.13,1,1,0,0,0-.86.48,2.26,2.26,0,0,0-.32,1.24Z"/></g><g class="cls-2"><path class="cls-3" d="M49.44,20.29H43.59L43.12,19c-.06-.14-.11-.28-.16-.42s-.1-.28-.16-.43a4.65,4.65,0,0,1-.17-.49c-.06-.18-.13-.39-.19-.61-.12.33-.24.66-.37,1s-.27.65-.41,1l-.59,1.26H35.43l4.12-7-3.9-6.58H41.4l.52,1.53c.06.15.14.38.23.68l.21.71.27-.75.27-.7.57-1.47h5.58L45,13.2Z"/></g></g></g></g></g></svg>